<svg xmlns="http://www.w3.org/2000/svg" viewBox="0 0 320 200">
  <defs>
    <linearGradient id="bg" x1="0" y1="0" x2="1" y2="1"><stop offset="0" stop-color="#f5d0fe"/><stop offset="1" stop-color="#fed7aa"/></linearGradient>
  </defs>
  <rect width="320" height="200" fill="url(#bg)"/>
  <circle cx="34" cy="34" r="6" fill="#fde047"/><circle cx="290" cy="176" r="4" fill="#d946ef" opacity=".5"/><circle cx="60" cy="170" r="4" fill="#fff"/>
  <!-- motion arcs -->
  <g fill="none" stroke="#c084fc" stroke-width="4" stroke-linecap="round" opacity=".7"><path d="M62 70a90 90 0 0 1 30-34"/><path d="M196 166a90 90 0 0 1-30 18"/></g>
  <!-- wheel -->
  <g transform="translate(130 106)">
    <circle r="76" fill="#7e22ce"/>
    <g>
      <path d="M0 0V-68A68 68 0 0 1 48.1-48.1z" fill="#d946ef"/>
      <path d="M0 0 48.1-48.1A68 68 0 0 1 68 0z" fill="#fff"/>
      <path d="M0 0H68A68 68 0 0 1 48.1 48.1z" fill="#f97316"/>
      <path d="M0 0 48.1 48.1A68 68 0 0 1 0 68z" fill="#fff"/>
      <path d="M0 0V68A68 68 0 0 1-48.1 48.1z" fill="#a855f7"/>
      <path d="M0 0-48.1 48.1A68 68 0 0 1-68 0z" fill="#fff"/>
      <path d="M0 0H-68A68 68 0 0 1-48.1-48.1z" fill="#facc15"/>
      <path d="M0 0-48.1-48.1A68 68 0 0 1 0-68z" fill="#fff"/>
    </g>
    <g fill="#fff"><circle cy="-72" r="3"/><circle cx="72" r="3"/><circle cy="72" r="3"/><circle cx="-72" r="3"/><circle cx="51" cy="-51" r="3"/><circle cx="51" cy="51" r="3"/><circle cx="-51" cy="51" r="3"/><circle cx="-51" cy="-51" r="3"/></g>
    <circle r="14" fill="#7e22ce" stroke="#fff" stroke-width="4"/>
    <!-- pointer -->
    <path d="M-12-88h24L0-62z" fill="#e11d48" stroke="#fff" stroke-width="3" stroke-linejoin="round"/>
  </g>
  <!-- wallet -->
  <g transform="translate(250 112) rotate(8)">
    <rect x="-36" y="-26" width="72" height="52" rx="10" fill="#f97316"/>
    <rect x="-36" y="-26" width="72" height="16" rx="8" fill="#ea580c"/>
    <rect x="10" y="-6" width="30" height="20" rx="6" fill="#fdba74"/>
    <circle cx="22" cy="4" r="4" fill="#fff"/>
  </g>
  <g transform="translate(262 62)">
    <circle r="17" fill="#facc15" stroke="#eab308" stroke-width="3"/>
    <text y="6.5" text-anchor="middle" font-family="Arial, sans-serif" font-size="18" font-weight="900" fill="#a16207">₱</text>
  </g>
</svg>
